<svg width="120" height="120" viewBox="0 0 31.75 31.75" xmlns:xlink="http://www.w3.org/1999/xlink" xmlns="http://www.w3.org/2000/svg"><defs><radialGradient xlink:href="#a" id="b" cx="31.75" cy="31.75" fx="31.75" fy="31.75" r="15.875" gradientUnits="userSpaceOnUse" gradientTransform="matrix(-2 -2 .7071 -.7071 72.8 117.7)"/><linearGradient id="a"><stop style="stop-color:#1a223e;stop-opacity:1" offset="0"/><stop style="stop-color:#253350;stop-opacity:1" offset="1"/></linearGradient></defs><rect style="fill:url(#b);stroke-width:4;stroke-linecap:round;stroke-linejoin:round;fill-opacity:1" width="31.75" height="31.75" rx="3" ry="3"/><path style="fill:#aebfc8;fill-opacity:1;stroke-width:4;stroke-linecap:round;stroke-linejoin:round" d="M24.018 6.127a5.884 5.884 0 0 0-5.884 5.884 5.884 5.884 0 0 0 4.698 5.76c-.529 2.338-1.586 3.932-3.043 4.99-.445.324-1.488 1.03-2.397 1.515-.313.166-.712.4-.96.532-.076.048-.173.106-.28.17-.085.053-.277.157-.277.283 0 .14.052.212.096.253.181.17 1.061.095 1.258.077.144-.012 1.263-.166 1.606-.25.699-.17 1.873-.452 2.658-.822a13.24 13.24 0 0 0 2.552-1.58c.388-.303.735-.62 1.115-.932.395-.324.512-.477.858-.83.272-.276.487-.59.739-.885.184-.215.551-.785.71-1.032.33-.605 1.004-1.946 1.291-2.707.133-.353.483-1.223.575-1.557.262-.95.404-1.417.482-1.972l-.004.003c.06-.335.09-.675.091-1.016a5.884 5.884 0 0 0-5.884-5.884zM22.924 17.79h.004l-.005.004.001-.004zM9.991 6.127a5.884 5.884 0 0 0-5.884 5.884 5.884 5.884 0 0 0 4.698 5.76c-.53 2.338-1.587 3.932-3.044 4.99-.444.324-1.487 1.03-2.397 1.515-.313.166-.712.4-.96.532-.075.048-.173.106-.279.17-.086.053-.277.157-.277.283 0 .14.052.212.096.253.18.17 1.06.095 1.258.077.143-.012 1.263-.166 1.605-.25.7-.17 1.873-.452 2.658-.822a13.24 13.24 0 0 0 2.553-1.58c.388-.303.734-.62 1.114-.932.396-.324.512-.477.859-.83.272-.276.486-.59.738-.885.185-.215.552-.785.71-1.032.33-.605 1.005-1.946 1.292-2.707.133-.353.482-1.223.574-1.557.262-.95.404-1.417.482-1.972l-.004.003c.06-.335.09-.675.092-1.016a5.884 5.884 0 0 0-5.884-5.884ZM8.897 17.79H8.9l-.005.004v-.004z"/></svg>